<svg width="16" height="16" fill="none" xmlns="http://www.w3.org/2000/svg"><path d="M14.667 14.933v-1.665c.351-.207.557-.594.533-1.001 0-.59-.358-1.067-.8-1.067-.442 0-.8.478-.8 1.067-.024.407.182.794.533 1.001v1.665h-1.866V6.832l-1.6-.8v1.435h.8V8h-.8v1.067h.8V9.6h-.8v1.067h.8v.533h-.8v1.067h.8v.533h-.8v1.067h.8v.533h-.8v.533h-.534V4.201l-3.2-.914v.98H8.8V4.8H6.933v1.067H8.8V6.4H6.933v1.067H8.8V8H6.933v1.067H8.8V9.6H6.933v1.067H8.8v.533H6.933v1.067H8.8v.533H6.933v1.067H8.8v.533H6.933v.533H6.4V0H1.6v1.067H4V1.6H1.6v1.067H4V3.2H1.6v1.067H4V4.8H1.6v1.067H4V6.4H1.6v1.067H4V8H1.6v1.067H4V9.6H1.6v1.067H4v.533H1.6v1.067H4v.533H1.6v1.067H4v.533H1.6v.533H0v.534h16v-.534h-1.333z" fill="#fff"/></svg>