<svg width="16" height="16" fill="none" xmlns="http://www.w3.org/2000/svg"><path d="M12.165 10.584c-.523-.516-1.176-.516-1.695 0-.397.393-.793.786-1.182 1.186-.107.11-.197.133-.327.06-.256-.14-.529-.253-.775-.407-1.149-.722-2.111-1.651-2.964-2.696-.423-.52-.799-1.076-1.062-1.702-.053-.126-.043-.21.06-.313.396-.383.783-.776 1.172-1.168.543-.546.543-1.186-.003-1.735-.31-.313-.62-.62-.93-.932-.319-.32-.635-.643-.958-.96-.523-.509-1.175-.509-1.695.004-.4.393-.782.796-1.188 1.182-.377.356-.566.792-.606 1.302-.064.829.14 1.611.426 2.374.586 1.578 1.478 2.98 2.56 4.265a15.845 15.845 0 005.248 4.105c.919.446 1.87.79 2.906.846.713.04 1.332-.14 1.828-.696.34-.38.723-.726 1.082-1.089.533-.54.536-1.192.007-1.725a568.753 568.753 0 00-1.905-1.9zM11.53 7.93l1.228-.209a5.49 5.49 0 00-1.535-2.963 5.462 5.462 0 00-3.13-1.562L7.92 4.432c.922.13 1.761.546 2.424 1.208a4.236 4.236 0 011.185 2.29zm1.92-5.34A9.059 9.059 0 008.254 0l-.173 1.235a7.855 7.855 0 014.488 2.238 7.85 7.85 0 012.201 4.245l1.23-.21a9.125 9.125 0 00-2.55-4.918z" fill="#fff"/></svg>