<svg width="54" height="50" fill="none" xmlns="http://www.w3.org/2000/svg"><g clip-path="url(#clip0)"><path d="M53.196 9.497a23.37 23.37 0 01-6.208 1.619c2.234-1.27 3.938-3.263 4.74-5.666a22.205 22.205 0 01-6.833 2.481c-1.977-2.003-4.796-3.244-7.87-3.244-5.966 0-10.769 4.607-10.769 10.254 0 .812.073 1.593.25 2.337-8.958-.415-16.885-4.5-22.21-10.722-.93 1.535-1.475 3.29-1.475 5.182 0 3.55 1.922 6.696 4.786 8.518a11.061 11.061 0 01-4.868-1.262v.112c0 4.981 3.735 9.119 8.633 10.072a11.28 11.28 0 01-2.825.338c-.69 0-1.386-.038-2.04-.175 1.396 4.059 5.358 7.043 10.069 7.14-3.667 2.728-8.321 4.372-13.36 4.372-.884 0-1.732-.037-2.58-.14 4.774 2.928 10.43 4.6 16.53 4.6 19.829 0 30.67-15.626 30.67-29.17 0-.452-.017-.89-.04-1.324 2.139-1.444 3.935-3.247 5.4-5.322z" fill="#03A9F4"/></g><defs><clipPath id="clip0"><path fill="#fff" d="M.637 0h52.56v50H.637z"/></clipPath></defs></svg>