<svg width="54" height="50" fill="none" xmlns="http://www.w3.org/2000/svg"><g clip-path="url(#clip0)"><path d="M52.114 12.997c-.606-2.142-2.382-3.83-4.633-4.407-4.113-1.07-20.565-1.07-20.565-1.07s-16.452 0-20.565 1.03c-2.208.576-4.026 2.306-4.632 4.447C.637 16.91.637 25.024.637 25.024s0 8.154 1.082 12.026c.606 2.141 2.381 3.83 4.633 4.407 4.156 1.07 20.564 1.07 20.564 1.07s16.452 0 20.565-1.03c2.252-.576 4.027-2.264 4.633-4.406 1.082-3.913 1.082-12.026 1.082-12.026s.044-8.155-1.082-12.068z" fill="red"/><path d="M21.678 32.52l13.68-7.496-13.68-7.496V32.52z" fill="#fff"/></g><defs><clipPath id="clip0"><path fill="#fff" d="M.637 0h52.56v50H.637z"/></clipPath></defs></svg>