<svg width="77" height="80" fill="none" xmlns="http://www.w3.org/2000/svg"><path d="M33.54 45.737H3.386c-1.38 0-1.38-2.085 0-2.085h27.232c1.55 0 1.552-2.343 0-2.343H5.696V6.771h63.622V41.31h-7.542c-1.549 0-1.552 2.343 0 2.343h10.277c1.378 0 1.378 2.085 0 2.085h-12.99c-1.548 0-1.55 2.343 0 2.343h12.99a3.39 3.39 0 003.385-3.385 3.389 3.389 0 00-3.385-3.386h-.391V6.771h.39a3.39 3.39 0 003.386-3.385A3.389 3.389 0 0072.053 0H3.386A3.39 3.39 0 000 3.386 3.39 3.39 0 003.352 6.77v34.54A3.39 3.39 0 000 44.695a3.39 3.39 0 003.386 3.385H33.54c1.55 0 1.552-2.343 0-2.343zM3.386 2.344h68.667c1.378 0 1.378 2.083 0 2.083H3.386c-1.38 0-1.378-2.083 0-2.083z" fill="#444"/><path d="M20.167 11.01A1.867 1.867 0 0018.3 9.145h-7.356c-1.03 0-1.866.836-1.866 1.865v4.545c0 1.03.837 1.866 1.866 1.866H18.3c1.03 0 1.867-.837 1.867-1.866V11.01zm-2.344 4.067h-6.402v-3.59h6.402v3.59zm2.344 6.793a1.868 1.868 0 00-1.867-1.866h-7.356c-1.03 0-1.866.837-1.866 1.866v4.545c0 1.029.837 1.866 1.866 1.866H18.3c1.03 0 1.867-.837 1.867-1.866V21.87zm-2.344 4.067h-6.402v-3.59h6.402v3.59zm.477 4.927h-7.356c-1.03 0-1.866.837-1.866 1.866v4.545c0 1.029.837 1.866 1.866 1.866H18.3c1.03 0 1.867-.837 1.867-1.866V32.73a1.868 1.868 0 00-1.867-1.866zm-.477 5.933h-6.402v-3.59h6.402v3.59zm51.917 16.45a19.492 19.492 0 00-3.978-1.206L53.89 49.733v-2.934c3.334-2.275 5.14-5.496 5.532-9.114a3.37 3.37 0 003.097-3.354v-2.409c2.822-1.226 2.44-5.344-.545-6.038v-.93c0-8.357-6.774-15.132-15.131-15.132h-1.268c-8.357 0-15.131 6.775-15.131 15.131v.93c-2.985.695-3.367 4.813-.545 6.04v2.407a3.369 3.369 0 003.097 3.355c.391 3.6 2.174 6.823 5.532 9.114v2.933L26.654 52.04a19.454 19.454 0 00-3.978 1.206c-4.818 2.073-7.168 5.383-7.168 10.059v2.407c0 1.549 2.343 1.551 2.343 0v-2.407c0-3.511 1.595-5.94 5.095-7.616.141.623 2.288 6.452 2.288 14.595v7.372h-4.951a2.432 2.432 0 01-2.432-2.432v-4.85c0-1.549-2.343-1.551-2.343 0v4.85A4.774 4.774 0 0020.283 80h51.85a4.774 4.774 0 004.776-4.775V63.306c0-4.676-2.352-7.986-7.168-10.06zm-2.455 1.572c-.163.715-2.447 6.864-2.447 15.466v7.372H47.38v-5.904c0-1.756.534-3.443 1.544-4.878a2197.735 2197.735 0 009.593-13.855c8.412 1.694 7.398 1.343 8.768 1.799zM45.41 65.526a919.823 919.823 0 01-3.286-4.713c.362-.08.716-.22 1.047-.418l3.038-1.822 3.038 1.822a3.49 3.49 0 001.046.418 883.503 883.503 0 01-3.285 4.713c-.3.426-.566.87-.8 1.326-.232-.457-.498-.9-.798-1.326zm-1.593-8.25c-1.856.993-1.724 1.29-2.567 1.19a1.846 1.846 0 01-1.295-.788l-3.547-5.146 2.347-.456c.758 2.302 3.257 4.133 5.062 5.2zm12.193-4.744c-.852 1.237-2.152 3.125-3.556 5.159-.573.829-1.6.935-2.002.694l-1.851-1.11c1.806-1.066 4.303-2.897 5.061-5.2l2.348.457zM39.383 13.767v1.47c0 1.549 2.343 1.551 2.343 0v-2.48a12.711 12.711 0 013.31-.58v5.795c0 1.549 2.344 1.551 2.344 0v-5.794c1.148.047 2.259.247 3.31.58v2.479c0 1.549 2.343 1.551 2.343 0v-1.47c7.326 4.07 6.547 11.849 6.597 12.034H32.786c.04-.15-.69-7.984 6.597-12.034zm-8.217 14.377H61.25c1.124 0 1.122 1.698 0 1.698H31.166c-1.123 0-1.121-1.698 0-1.698zm4.098 8.355a1.172 1.172 0 00-1.172-1.146c-.195-.05-1.85.304-1.85-1.022v-2.146h27.933v2.146c0 1.324-1.7.984-1.851 1.022-.638 0-1.158.509-1.172 1.146-.063 2.93-1.307 5.65-3.415 7.465-4.476 3.853-10.581 3.854-15.057 0-2.108-1.814-3.353-4.536-3.416-7.465zm16.281 11.593v2.606c0 2.096-3.556 4.314-5.337 5.21-1.78-.895-5.328-3.108-5.338-5.201v-2.614a13.455 13.455 0 0010.675 0zM25.131 54.82c1.369-.455.352-.105 8.767-1.8l.67.974c.683.993 1.628 2.365 2.676 3.884 1.912 2.771 4.549 6.581 6.248 8.997a8.436 8.436 0 011.545 4.879v5.903H27.578v-7.372c0-8.823-2.228-14.504-2.447-15.465zm49.434 20.406c0 1.34-1.09 2.431-2.431 2.431h-4.952v-7.371c0-7.92 2.201-14.212 2.289-14.595 3.499 1.677 5.094 4.105 5.094 7.616v11.92z" fill="#444"/><path d="M52.597 67.779a2.006 2.006 0 00-2.003 2.004v2.348c0 1.105.899 2.003 2.003 2.003h6.892a2.006 2.006 0 002.004-2.003v-2.348a2.006 2.006 0 00-2.004-2.004h-6.892zm6.552 4.012h-6.212v-1.668h6.212v1.668z" fill="#444"/></svg>