<svg width="80" height="80" fill="none" xmlns="http://www.w3.org/2000/svg"><path d="M80 16.347v-.863C80 6.946 73.054 0 64.516 0S49.032 6.946 49.032 15.484v.863c0 3.069.9 6.039 2.602 8.588l6.308 9.464c-3.949 1.114-6.33 3.182-6.33 5.601v16.662c-1.299-.853-3.047-1.528-5.16-1.961v-7.402a6.411 6.411 0 00-1.89-4.562l-8.433-8.433v-7.39a14.33 14.33 0 0011.613-14.082V4.516A4.521 4.521 0 0043.226 0a4.521 4.521 0 00-4.516 4.516v6.542a6.427 6.427 0 01-4.542 6.159 8.98 8.98 0 001.961-5.604c0-4.98-4.053-9.032-9.032-9.032-4.98 0-9.033 4.051-9.033 9.032a9 9 0 002.872 6.586c-5.918.685-11.304 4.1-14.402 9.262L.617 37.324A4.314 4.314 0 000 39.55a4.327 4.327 0 004.323 4.321h.508c1.448 0 2.792-.72 3.595-1.924l7.99-11.987a3.518 3.518 0 011.648-1.329V42.4l-4.967 17.387c-.004.013-.005.026-.008.038-4.915.965-7.928 3.214-7.928 5.981v7.742c0 3.68 5.547 6.452 12.903 6.452 5.25 0 9.564-1.417 11.613-3.561C31.727 78.585 36.041 80 41.29 80c5.25 0 9.564-1.417 11.613-3.561C54.953 78.585 59.267 80 64.516 80c7.356 0 12.903-2.773 12.903-6.452V40c0-2.422-2.38-4.486-6.329-5.6l6.309-9.463A15.428 15.428 0 0080 16.347zM46.395 57.333c3.397.788 5.218 2.222 5.218 3.312 0 1.58-4.02 3.871-10.323 3.871-6.302 0-10.322-2.292-10.322-3.87 0-1.091 1.82-2.525 5.218-3.313.282 2.58 2.449 4.602 5.104 4.602 2.656 0 4.822-2.022 5.105-4.602zM28.387 61.83c-1.173-.772-2.713-1.398-4.556-1.832l5.458-17.283 6.84 6.696V54.7c-4.804.984-7.742 3.212-7.742 5.944v1.186zm-.036-30.071l-1.254 1.254-1.254-1.254.741-11.12h.395c.04 0 .078.005.118.005.042 0 .082-.005.124-.006h.009c.127-.002.251-.012.378-.02l.743 11.141zm-7.706-20.147a6.459 6.459 0 016.452-6.452 6.459 6.459 0 016.451 6.452 6.459 6.459 0 01-6.451 6.451 6.459 6.459 0 01-6.452-6.451zm-5.161 49.553c0-.227.03-.451.094-.67l5.018-17.562.05-17.128h-1.291a6.101 6.101 0 00-5.085 2.722L6.279 40.515a1.741 1.741 0 01-1.45.775h-.506a1.743 1.743 0 01-1.495-2.636l5.92-9.864c3.013-5.025 8.525-8.145 14.384-8.145l.865-.001-.807 12.112 3.907 3.907 3.907-3.907-.829-12.413 2.981-.298a9.004 9.004 0 008.134-8.987V4.516c0-1.067.869-1.935 1.936-1.935s1.935.868 1.935 1.935v8.316a11.753 11.753 0 01-10.464 11.693l-1.149.127v10.72l9.189 9.19a3.845 3.845 0 011.134 2.737v9.475a2.583 2.583 0 01-2.58 2.58 2.583 2.583 0 01-2.581-2.58v-7.362c0-.69-.283-1.362-.777-1.846L30.203 40h-2.762l-7.205 22.817a2.421 2.421 0 01-2.319 1.7 2.436 2.436 0 01-2.433-2.434v-.916zm-2.54 1.33c.216 2.57 2.35 4.6 4.973 4.6a4.993 4.993 0 004.78-3.504l.352-1.117c3.465.787 5.338 2.242 5.338 3.331 0 1.58-4.02 3.871-10.323 3.871-6.301 0-10.322-2.291-10.322-3.87 0-1.09 1.815-2.52 5.202-3.31zm5.12 14.923c-6.301 0-10.322-2.291-10.322-3.87V69.76c2.315 1.537 6.001 2.498 10.322 2.498 4.322 0 8.008-.961 10.323-2.498v3.788c0 1.58-4.02 3.871-10.323 3.871zm23.226 0c-6.302 0-10.322-2.291-10.322-3.87v-8.95c2.315 1.536 6.001 2.498 10.322 2.498 4.322 0 8.008-.962 10.323-2.498v8.95c0 1.579-4.02 3.87-10.323 3.87zm23.226 0c-6.302 0-10.323-2.291-10.323-3.87V43.952c2.315 1.537 6.002 2.499 10.323 2.499 4.321 0 8.008-.962 10.323-2.498v29.594c0 1.58-4.02 3.871-10.323 3.871zM74.84 40c0 1.58-4.02 3.871-10.323 3.871-6.302 0-10.323-2.292-10.323-3.871 0-1.062 1.856-2.52 5.274-3.313l1.97 2.954a3.691 3.691 0 003.08 1.65c1.24 0 2.391-.617 3.08-1.648l1.97-2.955c3.418.792 5.272 2.247 5.272 3.312zm-9.39-1.79c-.415.625-1.449.625-1.864 0L53.78 23.504a12.854 12.854 0 01-2.168-7.157v-.863c0-7.115 5.788-12.903 12.903-12.903S77.42 8.369 77.42 15.484v.863c0 2.556-.75 5.031-2.167 7.157L65.449 38.21z" fill="#444"/><path d="M64.518 5.161c-5.692 0-10.323 4.631-10.323 10.323 0 5.691 4.631 10.322 10.323 10.322s10.323-4.63 10.323-10.322c0-5.692-4.631-10.323-10.323-10.323zm0 18.065c-4.27 0-7.742-3.473-7.742-7.742 0-4.27 3.472-7.742 7.742-7.742s7.742 3.472 7.742 7.742-3.472 7.742-7.742 7.742zm-7.745 25.806h2.581v2.58h-2.58v-2.58zm0 5.162h2.581v18.064h-2.58V54.194z" fill="#444"/></svg>