<svg width="77" height="80" fill="none" xmlns="http://www.w3.org/2000/svg"><path d="M72.499 69.422V50.736a3.228 3.228 0 00-3.224-3.223H58.871v-9.28a3.346 3.346 0 00-2.725-3.283v-6.173a3.54 3.54 0 00-3.208-3.52 14.707 14.707 0 00-2.074-5.36 1.189 1.189 0 00-2.003 1.276 12.316 12.316 0 011.655 4.068H26.414a12.336 12.336 0 019.025-9.402 12.492 12.492 0 016.052 0 12.198 12.198 0 014.518 2.205 1.189 1.189 0 001.456-1.877 14.566 14.566 0 00-4.494-2.374V9.029a3.632 3.632 0 00-3.317-3.613V1.188a1.188 1.188 0 10-2.377 0v4.227a3.633 3.633 0 00-3.318 3.614v4.765a14.72 14.72 0 00-9.968 11.463 3.54 3.54 0 00-3.207 3.52v6.173a3.346 3.346 0 00-2.724 3.283v9.28H7.656a3.227 3.227 0 00-3.224 3.223v18.686A5.474 5.474 0 000 74.788v4.023a1.189 1.189 0 002.377 0v-4.023A3.092 3.092 0 015.466 71.7h3.568a1.189 1.189 0 000-2.376H6.808V55.055H18.06v14.268h-3.217a1.189 1.189 0 000 2.376h56.622a3.093 3.093 0 013.089 3.09v4.023a1.189 1.189 0 002.377 0v-4.024a5.474 5.474 0 00-4.432-5.366zM37.588 7.778h1.755c.69 0 1.251.56 1.251 1.25v4.216a14.994 14.994 0 00-4.258 0V9.029c0-.69.561-1.251 1.252-1.251zm31.687 42.11c.468 0 .847.38.847.848v1.942H58.871v-2.79h10.404zm-19.279 13.37a1.19 1.19 0 00-1.188 1.19v4.875h-5.311V55.055h5.31v4.55a1.189 1.189 0 002.377 0v-4.55h5.31v14.268h-5.31v-4.876c0-.656-.532-1.188-1.188-1.188zm-29.56-14.554v-.701l18.03-5.498 18.028 5.498v4.675H20.437v-3.974zm12.998 6.35v14.269h-5.311V55.055h5.31zm2.376 0h5.31v14.269h-5.31V55.055zM21.401 37.267h4.096a1.189 1.189 0 000-2.377H23.16v-6.113c0-.64.52-1.16 1.16-1.16h28.29c.64 0 1.16.52 1.16 1.16v6.114H30.843a1.188 1.188 0 100 2.376h24.686c.532 0 .965.433.965.966v7.286l-17.682-5.392a1.189 1.189 0 00-.693 0l-17.683 5.392v-7.286c0-.532.433-.966.965-.966zM6.808 52.677v-1.941c0-.467.38-.847.848-.847H18.06v2.789H6.808zm13.628 2.377h5.31v14.269h-5.31V55.055zM58.87 69.323V55.055h11.251v14.268h-11.25z" fill="#444"/></svg>