<svg width="80" height="80" fill="none" xmlns="http://www.w3.org/2000/svg"><path d="M21.219 30.928h-2.653v2.653h2.653v-2.653zm13.266 0h-2.653v2.653h2.653v-2.653z" fill="#444"/><path d="M78.438 45.53l-5.182-.74a18.563 18.563 0 00-.871-2.122l3.135-4.18a1.326 1.326 0 00-.123-1.733l-5.627-5.628a1.312 1.312 0 00-.804-.375V17.985a10.61 10.61 0 003.979-8.277A10.5 10.5 0 0066.88.127a1.327 1.327 0 00-1.893 1.199v7.427l-2.652.885-2.653-.885V1.326A1.325 1.325 0 0057.789.132a10.5 10.5 0 00-6.065 9.576 10.61 10.61 0 003.98 8.277v8.964h-3.98a1.326 1.326 0 00-1.313 1.138l-.858 6.007 2.626.375.695-4.867h5.658l.695 4.867a1.326 1.326 0 00.942 1.085 15.8 15.8 0 013.183 1.31 1.326 1.326 0 001.434-.103l3.927-2.944 4 4-2.951 3.927a1.326 1.326 0 00-.103 1.434c.551 1.01.99 2.077 1.31 3.183a1.326 1.326 0 001.084.941l4.868.695v5.658l-4.868.695a1.327 1.327 0 00-1.084.942 15.835 15.835 0 01-1.31 3.183 1.327 1.327 0 00.103 1.433l2.944 3.928-4 4-3.925-2.955a1.326 1.326 0 00-1.433-.103c-1.01.551-2.078.99-3.183 1.31a1.326 1.326 0 00-.942 1.084l-.69 4.87H53.05v-5.608a14.723 14.723 0 00-.597-4.14 12.082 12.082 0 10-8.48-9.366c-.032-.013-.063-.029-.094-.04l-10.723-4.29V46.56a14.706 14.706 0 004.614-3.695h3.343a3.979 3.979 0 003.98-3.98V35.99a3.979 3.979 0 002.652-3.735v-3.978a3.98 3.98 0 00-2.653-3.735v-1.57a18.567 18.567 0 10-37.135 0v1.57a3.979 3.979 0 00-2.653 3.735v3.978a3.979 3.979 0 003.979 3.98h2.652c.085 0 .168-.014.251-.02a14.618 14.618 0 007.707 10.346v2.038L9.17 52.889A14.52 14.52 0 000 66.435v12.24A1.326 1.326 0 001.325 80h50.398a1.326 1.326 0 001.327-1.326v-3.98h6.631a1.326 1.326 0 001.313-1.137l.74-5.182a18.582 18.582 0 002.122-.871l4.18 3.135a1.326 1.326 0 001.734-.123l5.627-5.628a1.327 1.327 0 00.124-1.733l-3.136-4.18c.334-.689.625-1.398.872-2.122l5.181-.74a1.326 1.326 0 001.137-1.312v-7.958a1.327 1.327 0 00-1.138-1.313zM63.85 34.14c-.062-.03-.132-.05-.195-.08V17.666h-2.646v10.518l-.013-.096a1.326 1.326 0 00-1.313-1.138h-1.326v-9.628a1.327 1.327 0 00-.57-1.09A7.957 7.957 0 0157.03 3.77v5.939a1.326 1.326 0 00.908 1.259l3.979 1.326c.272.09.566.09.838 0l3.979-1.326a1.327 1.327 0 00.907-1.26V3.77a7.956 7.956 0 01-.758 12.467 1.326 1.326 0 00-.569 1.085v14.977L63.85 34.14zM46.42 50.822a9.35 9.35 0 114.42 7.88 14.477 14.477 0 00-3.462-3.816 9.067 9.067 0 01-.958-4.064zm-5.305-10.61h-1.61a14.454 14.454 0 001.36-3.997c.083 0 .165.018.25.018h1.327v2.653a1.326 1.326 0 01-1.327 1.326zm-2.652-14.589a3.999 3.999 0 01-3.183-1.591l-2.388-3.183a1.327 1.327 0 00-1.89-.24l-4.45 3.555a6.655 6.655 0 01-4.137 1.46H14.59v-1.327a11.937 11.937 0 0123.873 0v1.326zm6.631 6.631a1.326 1.326 0 01-1.326 1.327h-2.653v-6.632h2.653a1.326 1.326 0 011.326 1.327v3.978zM26.525 7.055a15.932 15.932 0 0115.916 15.916v1.326h-1.327a14.589 14.589 0 10-29.177 0H10.61V22.97A15.933 15.933 0 0126.525 7.055zM9.284 33.581a1.326 1.326 0 01-1.326-1.327v-3.978a1.326 1.326 0 011.326-1.327h2.652v6.632H9.285zm5.305 0v-5.305h7.825a9.316 9.316 0 005.798-2.035l3.384-2.707 1.56 2.09a6.665 6.665 0 005.306 2.652v5.305a11.86 11.86 0 01-2.019 6.631h-9.918v2.653h7.486a11.924 11.924 0 01-19.422-9.284zM26.525 48.17a14.541 14.541 0 003.98-.565v1.89a3.979 3.979 0 11-7.958 0v-1.89c1.293.371 2.632.561 3.978.565zm23.873 29.177h-7.957V62.76h-2.653v14.588H13.263V62.76H10.61v14.588H2.653V66.434a11.88 11.88 0 017.504-11.084l10.03-4.012a6.589 6.589 0 0012.677 0l10.03 4.012a11.881 11.881 0 017.504 11.084v10.913z" fill="#444"/><path d="M57.028 32.254h-2.653v2.653h2.653v-2.653zm0 34.483h-2.653v2.653h2.653v-2.653zm10.867-5.599l-1.876 1.876 1.876 1.875 1.876-1.875-1.876-1.876zm6.375-11.642h-2.653v2.653h2.653v-2.653zm-6.375-12.74L66.02 38.63l1.876 1.876 1.876-1.876-1.876-1.875z" fill="#444"/></svg>