<svg width="53" height="80" fill="none" xmlns="http://www.w3.org/2000/svg"><path d="M37.685 32.205l13.62-23.59L49.774 2.9 44.75 0l-7.798 13.507v-3.12c0-5.607-4.563-10.17-10.17-10.17s-10.17 4.563-10.17 10.17v3.122L8.815 0 3.791 2.9l-1.53 5.714 13.62 23.594V49.74L.734 75.557 8.314 80l4.492-1.172L25.2 57.678h3.166l12.395 21.15L45.252 80l7.58-4.443L37.685 49.74V32.205zm-16.621-7.474h1.874l.013.013h.827v3.652h.119l-.26 2.235-2.573-5.9zm6.38 1.321h-1.322v-1.308h1.321v1.308zm-1.945 8.849l.758-6.505h1.051l.759 6.505-1.092 2.503h-.385L25.5 34.9zm4.17-6.505h.118v-3.652h.829l.013-.013H32.5l-2.573 5.9-.26-2.235zM26.782 2.562c4.315 0 7.825 3.51 7.825 7.825v7.05l-4.95 4.95h-5.75l-4.95-4.95v-7.05c0-4.315 3.51-7.825 7.825-7.825zm22.84 72.16l-4.719 2.765-2.612-.682-12.583-21.47h-5.851l-12.584 21.47-2.612.682-4.72-2.766 14.283-24.775V31.58L4.775 8.284l1.029-3.84 2.152-1.242 11.077 19.185h-1.548l7.57 17.36h3.455l7.57-17.36h-1.548L45.609 3.202l2.152 1.243 1.029 3.839-13.45 23.293v18.8L49.624 74.72z" fill="#444"/></svg>