<svg width="50" height="50" fill="none" xmlns="http://www.w3.org/2000/svg"><path d="M49.713.286A.977.977 0 0049.022 0L24.999.001a.977.977 0 00-.976.977V3.77l-9.257 2.48a.976.976 0 00-.69 1.196l4.797 17.904-4.15 4.15a2.929 2.929 0 00-2.419-1.278H2.93A2.933 2.933 0 000 31.153V47.07A2.933 2.933 0 002.93 50h9.374a2.934 2.934 0 002.844-2.225l1.16 1.013A4.92 4.92 0 0019.544 50h29.48a.977.977 0 00.976-.977V.977a.978.978 0 00-.286-.691zM13.28 47.07a.978.978 0 01-.977.977H2.93a.978.978 0 01-.976-.977V31.153c0-.539.438-.977.976-.977h3.71v11.25a.977.977 0 001.953 0v-11.25h3.711c.539 0 .977.438.977.977V47.07zm2.934-39.185l7.808-2.093v3.62l-.655.175a.976.976 0 00-.69 1.196 2.632 2.632 0 01-1.86 3.22.977.977 0 00-.69 1.198l3.807 14.095h-1.96l-1.01-3.951a.974.974 0 00-.164-.343L16.215 7.885zm7.808 6.005v8.24l-1.782-6.595a4.576 4.576 0 001.782-1.645zm14.03 34.157h-18.51c-.717 0-1.41-.26-1.95-.731l-2.36-2.057V31.753l4.264-4.264.774 3.026c.11.432.5.734.946.734l19.2.001a1.369 1.369 0 010 2.734h-9.839a.977.977 0 000 1.954h12.895a1.368 1.368 0 010 2.734H30.578a.977.977 0 000 1.953h10.805a1.369 1.369 0 010 2.734H30.578a.977.977 0 000 1.954h7.474a1.368 1.368 0 010 2.734zm9.993 0h-6.97a3.3 3.3 0 000-2.734h.307c1.831 0 3.32-1.49 3.32-3.32 0-.535-.127-1.04-.352-1.487a3.325 3.325 0 002.442-3.201c0-.74-.244-1.425-.655-1.978V22.95a.977.977 0 00-1.953 0v11.112a3.32 3.32 0 00-.712-.077h-.032a3.3 3.3 0 00.295-1.367 3.323 3.323 0 00-3.32-3.32h-1.57A4.68 4.68 0 0041.684 25a4.679 4.679 0 00-4.674-4.674A4.679 4.679 0 0032.337 25a4.68 4.68 0 002.837 4.297h-5.338V10.73a4.597 4.597 0 003.502-3.501h7.345a4.597 4.597 0 003.502 3.5v3.037a.977.977 0 001.953 0V9.857a.977.977 0 00-.977-.977c-1.45 0-2.63-1.18-2.63-2.629a.977.977 0 00-.976-.977h-9.09a.977.977 0 00-.976.977c0 1.45-1.18 2.63-2.63 2.63a.977.977 0 00-.976.976v19.44h-1.907V1.954h22.07v46.093zM37.01 27.72c-1.5 0-2.72-1.22-2.72-2.72 0-1.5 1.22-2.721 2.72-2.721 1.5 0 2.72 1.22 2.72 2.72 0 1.5-1.22 2.72-2.72 2.72z" fill="#199525"/></svg>