<svg width="50" height="50" fill="none" xmlns="http://www.w3.org/2000/svg"><path d="M39.75 37.62a.976.976 0 00-1.36.245c-.297.43-.634.848-1.002 1.242-.247.265-.586.584-.956.898a.977.977 0 001.267 1.487 13.7 13.7 0 001.117-1.053c.432-.462.829-.954 1.18-1.461a.976.976 0 00-.247-1.359zm-4.254 4.378a.977.977 0 00-1.299-.47l-.03.014a.976.976 0 10.788 1.787l.071-.032a.977.977 0 00.47-1.3z" fill="#199525"/><path d="M47.083 2.54H2.917A2.92 2.92 0 000 5.456v27.368a2.92 2.92 0 002.917 2.917h20.566c.871 3.689 2.843 6.301 4.566 7.975 2.514 2.443 5.397 3.744 6.511 3.744 1.114 0 3.997-1.301 6.512-3.744 1.723-1.674 3.695-4.286 4.566-7.975h1.445A2.92 2.92 0 0050 32.825V5.457a2.92 2.92 0 00-2.917-2.918zm-2.942 29.2c0 5.145-2.375 8.558-4.368 10.515-2.364 2.322-4.788 3.225-5.213 3.252-.424-.027-2.849-.93-5.212-3.252-1.993-1.957-4.368-5.37-4.368-10.515v-4.81a43.708 43.708 0 009.58-4.051 45.22 45.22 0 009.58 4.051v4.81zm3.906 1.085a.965.965 0 01-.964.964h-1.105a18.02 18.02 0 00.116-2.049v-5.55a.976.976 0 00-.72-.942 43.08 43.08 0 01-10.32-4.34.977.977 0 00-.987 0 41.9 41.9 0 01-10.32 4.34.977.977 0 00-.72.942v5.55c0 .712.04 1.395.116 2.05H2.917a.965.965 0 01-.964-.965V16.21h46.094v16.614zm0-18.567H1.953v-3.906h46.094v3.906zm0-5.86H1.953v-2.94c0-.532.433-.965.964-.965h44.166c.531 0 .964.433.964.965V8.4z" fill="#199525"/><path d="M11.717 23.047a4.4 4.4 0 00-1.708.346 4.4 4.4 0 00-6.104 4.048 4.4 4.4 0 006.104 4.049 4.4 4.4 0 001.708.346 4.4 4.4 0 004.395-4.394 4.4 4.4 0 00-4.395-4.395zM8.3 29.883a2.444 2.444 0 01-2.442-2.441A2.444 2.444 0 018.3 25a2.444 2.444 0 012.441 2.442 2.444 2.444 0 01-2.441 2.44zm3.66-.012a4.37 4.37 0 00.734-2.43c0-.897-.27-1.732-.735-2.429a2.445 2.445 0 012.2 2.43 2.445 2.445 0 01-2.2 2.429zM9.907 18.652H4.884a.977.977 0 100 1.954h5.023a.977.977 0 000-1.954zm2.886 0h-.046a.977.977 0 100 1.954h.046a.977.977 0 000-1.954zM39.92 29.495a.977.977 0 00-1.38 0l-5.223 5.222-2.737-2.737a.977.977 0 00-1.38 1.38l3.426 3.428a.974.974 0 001.381 0l5.913-5.912a.977.977 0 000-1.381z" fill="#199525"/></svg>